<?xml version="1.0" encoding="utf-8"?>
<!-- Generator: Adobe Illustrator 16.0.0, SVG Export Plug-In . SVG Version: 6.00 Build 0)  -->
<!DOCTYPE svg PUBLIC "-//W3C//DTD SVG 1.1//EN" "http://www.w3.org/Graphics/SVG/1.1/DTD/svg11.dtd">
<svg version="1.1" id="Layer_1" xmlns="http://www.w3.org/2000/svg" xmlns:xlink="http://www.w3.org/1999/xlink" x="0px" y="0px"
	 width="190px" height="60px" viewBox="0 0 190 60" enable-background="new 0 0 190 60" xml:space="preserve">
<g>
	<ellipse fill="#FFFFFF" cx="34.743" cy="24.148" rx="8.988" ry="8.612"/>
	<polygon fill="#FFFFFF" points="34.743,22.149 39.189,34.804 43.636,47.457 34.743,47.457 25.849,47.457 30.295,34.804 	"/>
</g>
<g id="XMLID_4_">
	<g>
		<polygon fill="#FFFFFF" points="154.372,23.261 154.372,27.725 45.35,27.389 45.35,22.931 		"/>
	</g>
	<g>
		<polyline fill="none" stroke="#ED1C24" stroke-miterlimit="10" points="45.344,22.931 45.35,22.931 154.372,23.261 		"/>
		<line fill="none" stroke="#ED1C24" stroke-miterlimit="10" x1="45.35" y1="27.389" x2="154.372" y2="27.725"/>
		<line fill="none" stroke="#ED1C24" stroke-miterlimit="10" x1="45.35" y1="22.931" x2="45.35" y2="27.389"/>
		<line fill="none" stroke="#ED1C24" stroke-miterlimit="10" x1="154.372" y1="23.261" x2="154.372" y2="27.725"/>
	</g>
</g>
<path fill="#FFFFFF" stroke="#ED1C24" stroke-miterlimit="10" d="M150.145,21.348c-1.429-3.549-0.571-8.567-0.571-8.567
	c2.284-6.406,6.364-7.017,6.364-7.017c0-0.014,0.002-0.024,0.003-0.038c0.075-0.017,0.14-0.046,0.195-0.086
	c0.086-0.032,0.159-0.081,0.214-0.143c0.102-0.097,0.16-0.229,0.178-0.367c1.942-0.841,8.019-0.468,8.019-0.468
	c3.549-0.204,7.63,2.897,7.63,2.897c2.488,0.815,4.038,6.282,4.038,6.282l0.083,3.345c-0.041,0.735,0.122,1.877,0.122,1.877
	c-0.042,0.081,3.182,5.549,3.182,5.549c0.897,0.571-2.039,1.713-2.039,1.713c0,0.898,0.163,2.435,0.163,2.435
	s-0.272,0.113,0.028,0.038c0.005,0.042,0.014,0.084,0.024,0.125c-0.271,0.197-0.788,0.503-0.788,0.503
	c1.102,1.021,0.367,1.183,0.367,1.183l-1.128,0.939c0,0-0.041,0.125-0.083,0.186c0.074,0.081,0.164,0.452-0.054,1.731
	c-0.012,0.07-0.024,0.139-0.04,0.204c-0.323,1.453-1.28,1.874-1.58,1.973c-0.153,0.01-0.273,0.067-0.361,0.153
	c-0.116,0.007-0.215,0.039-0.293,0.091c-1.005,0.072-3.047-0.307-3.535-0.4c-0.034-0.022-0.072-0.042-0.113-0.057
	c-0.109-0.163-1.299-0.118-1.299,0.035v3.016c-0.004,0.019-0.007,0.038-0.011,0.058c-0.017,0.031-0.029,0.064-0.04,0.099
	c-0.085,0.093-0.136,0.214-0.152,0.34c-1.415,1.858-0.449,5.179-0.449,5.179l0.04,0.185h-16.563l0.449-1.938
	c0.204,0.163,2.243-11.464,2.243-11.464c-0.324-3.166-1.305-4.243-1.305-4.243C150.798,25.428,150.145,21.348,150.145,21.348z"/>
<g>
	<path fill="#FFFFFF" d="M74.388,31.536c0.138,0,0.236,0.118,0.256,0.257l2.696,14.072c0.04,0.217-0.059,0.434-0.275,0.434h-3.189
		c-0.118,0-0.236-0.078-0.255-0.197l-0.394-2.952c-0.02-0.099-0.098-0.158-0.196-0.158h-1.063c-0.079,0-0.158,0.079-0.176,0.197
		l-0.375,2.894c-0.02,0.139-0.158,0.217-0.256,0.217h-3.248c-0.177,0-0.275-0.138-0.236-0.335l2.638-14.191
		c0.02-0.099,0.118-0.236,0.236-0.236H74.388z M72.656,38.957c-0.04-0.276-0.079-0.453-0.138-0.453
		c-0.059,0-0.098,0.139-0.138,0.453l-0.256,1.869c-0.02,0.1,0.02,0.196,0.118,0.196c0.63,0,0.689,0,0.669-0.176L72.656,38.957z"/>
	<path fill="#FFFFFF" d="M82.932,36.3c-0.119,0-0.197-0.06-0.236-0.217c-0.118-0.472-0.315-0.709-0.591-0.709
		c-0.197,0-0.295,0.157-0.295,0.354c0,0.631,0.925,1.339,2.105,2.146c1.279,0.866,2.244,2.283,2.244,3.739
		c0,2.638-1.575,4.745-4.153,4.745c-2.992,0-4.37-2.166-4.37-5.315c0-0.099,0.079-0.196,0.236-0.196l2.716-0.139
		c0.138,0,0.216,0.079,0.236,0.256c0.079,0.788,0.413,1.634,0.886,1.634c0.276,0,0.453-0.177,0.453-0.63
		c0-0.473-1.103-1.339-2.421-2.401c-1.319-1.063-1.969-2.538-1.969-3.877c0-2.008,1.496-4.193,4.134-4.193s4.271,2.067,4.271,4.41
		c0,0.137-0.079,0.256-0.236,0.256L82.932,36.3z"/>
	<path fill="#FFFFFF" d="M89.506,46.299c-0.138,0-0.276-0.119-0.276-0.275V35.748c0-0.137-0.119-0.236-0.256-0.236h-1.968
		c-0.118,0-0.256-0.157-0.256-0.275v-3.503c0-0.118,0.06-0.197,0.177-0.197h8.424c0.138,0,0.256,0.079,0.256,0.236v3.464
		c0,0.157-0.118,0.275-0.275,0.275h-1.968c-0.137,0-0.236,0.1-0.236,0.275v10.256c0,0.137-0.119,0.256-0.276,0.256H89.506z"/>
	<path fill="#FFFFFF" d="M96.298,31.793c0-0.119,0.117-0.257,0.256-0.257h6.987c0.117,0,0.196,0.099,0.196,0.216v3.545
		c0,0.117-0.098,0.196-0.216,0.196h-3.288c-0.078,0-0.137,0.059-0.137,0.138v1.102c0,0.079,0.079,0.138,0.137,0.138h1.556
		c0.079,0,0.138,0.059,0.138,0.138v3.583c0,0.098-0.079,0.177-0.157,0.177h-1.594c-0.079,0-0.139,0.059-0.139,0.158v1.16
		c0,0.079,0.06,0.138,0.118,0.138h3.405c0.139,0,0.217,0.099,0.217,0.197v3.661c0,0.118-0.099,0.217-0.217,0.217h-7.047
		c-0.117,0-0.216-0.119-0.216-0.256V31.793z"/>
	<path fill="#FFFFFF" d="M109.17,31.536c1.732,0,3.801,1.339,3.801,3.74c0,1.063-0.198,3.012-2.068,3.286v0.04
		c2.402,0.688,2.402,1.969,2.402,3.976c0,0.236,0.098,0.473,0.531,0.649c0.099,0.06,0.177,0.197,0.177,0.275
		c0,2.677-1.969,2.835-2.617,2.835c-1.418,0-2.362-0.983-2.362-2.835v-3.03c0-0.63-0.275-0.944-0.492-0.944
		c-0.118,0-0.138,0.098-0.138,0.234v6.3c0,0.117-0.099,0.236-0.236,0.236h-3.365c-0.139,0-0.236-0.099-0.236-0.256V31.772
		c0-0.138,0.098-0.236,0.216-0.236H109.17z M108.403,37.657c0,0.138,0.039,0.177,0.138,0.177c0.474,0,0.474-0.551,0.474-1.456
		c0-0.452-0.277-0.708-0.455-0.708c-0.098,0-0.156,0.059-0.156,0.177V37.657z"/>
	<path fill="#FFFFFF" d="M114.684,46.299c-0.079,0-0.158-0.099-0.158-0.178V31.733c0-0.099,0.06-0.197,0.158-0.197h5.274
		c0.099,0,0.178,0.079,0.197,0.197l0.591,3.917c0.019,0.137,0.059,0.196,0.098,0.196s0.079-0.078,0.079-0.216l0.473-3.879
		c0.02-0.117,0.099-0.216,0.217-0.216h5.471c0.139,0,0.217,0.079,0.217,0.216v14.35c0,0.119-0.098,0.197-0.217,0.197h-3.563
		c-0.118,0-0.216-0.078-0.216-0.217v-6.161c0-0.158-0.02-0.216-0.06-0.216c-0.039,0-0.077,0.078-0.137,0.393l-1.024,6.043
		c-0.02,0.118-0.117,0.158-0.216,0.158h-2.226c-0.098,0-0.177-0.078-0.216-0.217l-0.904-5.63c-0.06-0.334-0.139-0.393-0.197-0.393
		s-0.1,0.098-0.1,0.255v5.768c0,0.139-0.059,0.217-0.196,0.217H114.684z"/>
	<path fill="#FFFFFF" d="M128.345,46.299c-0.138,0-0.257-0.138-0.257-0.295V31.733c0-0.099,0.079-0.197,0.178-0.197h3.366
		c0.137,0,0.236,0.079,0.236,0.197v14.31c0,0.118-0.1,0.256-0.236,0.256H128.345z"/>
	<path fill="#FFFFFF" d="M132.655,31.793c0-0.139,0.1-0.257,0.217-0.257h3.326c0.138,0,0.236,0.079,0.275,0.236l1.182,4.429
		c0.039,0.158,0.099,0.236,0.138,0.236c0.06,0,0.117-0.078,0.117-0.256v-4.389c0-0.139,0.099-0.257,0.236-0.257h2.953
		c0.157,0,0.257,0.138,0.257,0.275v14.231c0,0.137-0.079,0.256-0.218,0.256h-3.681c-0.079,0-0.196-0.078-0.216-0.197l-0.866-3.544
		c-0.04-0.196-0.118-0.274-0.178-0.274s-0.098,0.078-0.098,0.274v3.485c0,0.137-0.117,0.256-0.256,0.256h-2.992
		c-0.118,0-0.197-0.119-0.197-0.275V31.793z"/>
	<path fill="#FFFFFF" d="M142.38,46.299c-0.157,0-0.236-0.099-0.236-0.236V31.831c0-0.157,0.098-0.295,0.256-0.295h3.523
		c3.13,0,4.979,1.988,4.979,5.57v3.661c0,3.188-1.79,5.531-4.842,5.531H142.38z M146.945,35.966c0-0.197-0.059-0.354-0.177-0.454
		c-0.078-0.059-0.236-0.118-0.334-0.118c-0.079,0-0.117,0.06-0.117,0.178v6.534c0,0.118,0.038,0.158,0.117,0.158
		c0.117,0,0.511,0,0.511-0.571V35.966z"/>
</g>
<g>
	<path fill="#ED1C24" d="M55.022,53.229c0.654,0.282,1.108,0.579,1.365,0.889c0.256,0.31,0.445,0.787,0.566,1.433
		c0.159,0.849,0.379,1.418,0.661,1.71c0.281,0.293,0.65,0.448,1.105,0.467c0.127,0.009,0.19,0.055,0.19,0.137
		c0,0.083-0.073,0.125-0.219,0.125c-1.32,0-2.119-0.044-2.4-0.131c-0.28-0.088-0.489-0.569-0.625-1.446
		c-0.127-0.852-0.261-1.476-0.399-1.869c-0.139-0.393-0.361-0.695-0.665-0.903c-0.304-0.211-0.779-0.316-1.424-0.316
		c-0.245,0-0.523,0.027-0.833,0.078c-0.024,0.297-0.036,0.605-0.036,0.926c0,1.208,0.017,1.99,0.049,2.345
		c0.033,0.355,0.133,0.614,0.301,0.777c0.167,0.162,0.446,0.247,0.837,0.257c0.17,0.005,0.255,0.046,0.255,0.123
		c0,0.093-0.104,0.138-0.311,0.138h-3.498c-0.203,0-0.304-0.045-0.304-0.138c0-0.082,0.08-0.123,0.24-0.123
		c0.358,0,0.607-0.054,0.746-0.162c0.139-0.109,0.249-0.276,0.329-0.505s0.12-0.642,0.12-1.24l-0.014-1.44l0.007-2.195
		c0-1.122-0.024-1.862-0.075-2.225c-0.049-0.362-0.138-0.606-0.265-0.731s-0.422-0.222-0.883-0.293
		c-0.099-0.014-0.149-0.055-0.149-0.12c0-0.074,0.099-0.113,0.297-0.113l4.184-0.092c1.154,0,1.992,0.222,2.513,0.664
		c0.521,0.443,0.781,0.984,0.781,1.624c0,0.405-0.105,0.775-0.314,1.108c-0.209,0.335-0.458,0.577-0.746,0.728
		C56.12,52.863,55.658,53.034,55.022,53.229z M52.344,53.047c0.904-0.018,1.583-0.081,2.035-0.189
		c0.453-0.109,0.837-0.347,1.156-0.714c0.318-0.367,0.477-0.804,0.477-1.309c0-0.532-0.176-0.996-0.529-1.392
		c-0.354-0.396-0.919-0.594-1.697-0.594c-0.424,0-0.893,0.057-1.406,0.17c-0.057,1.296-0.085,2.328-0.085,3.095
		C52.294,52.379,52.311,52.689,52.344,53.047z"/>
	<path fill="#ED1C24" d="M59.001,53.281c0-0.638,0.193-1.335,0.58-2.096c0.386-0.762,0.951-1.389,1.692-1.883
		c0.743-0.496,1.58-0.743,2.513-0.743c1.305,0,2.382,0.467,3.233,1.399c0.85,0.934,1.275,1.998,1.275,3.195
		c0,1.271-0.471,2.413-1.414,3.424c-0.942,1.01-2.076,1.516-3.4,1.516c-1.267,0-2.331-0.442-3.19-1.329
		C59.431,55.879,59.001,54.719,59.001,53.281z M60.577,53.051c0,0.769,0.118,1.559,0.353,2.366c0.236,0.809,0.605,1.396,1.109,1.762
		s1.042,0.548,1.617,0.548c0.927,0,1.669-0.452,2.227-1.354c0.558-0.903,0.836-1.949,0.836-3.137c0-1.15-0.284-2.161-0.854-3.031
		c-0.569-0.87-1.313-1.305-2.231-1.305c-0.692,0-1.268,0.231-1.729,0.696c-0.461,0.464-0.797,1.02-1.01,1.666
		C60.683,51.907,60.577,52.504,60.577,53.051z"/>
	<path fill="#ED1C24" d="M69.553,53.281c0-0.638,0.193-1.335,0.579-2.096c0.386-0.762,0.951-1.389,1.692-1.883
		c0.743-0.496,1.58-0.743,2.513-0.743c1.305,0,2.383,0.467,3.233,1.399c0.85,0.934,1.275,1.998,1.275,3.195
		c0,1.271-0.472,2.413-1.413,3.424c-0.943,1.01-2.076,1.516-3.399,1.516c-1.268,0-2.332-0.442-3.191-1.329
		C69.983,55.879,69.553,54.719,69.553,53.281z M71.129,53.051c0,0.769,0.117,1.559,0.353,2.366c0.235,0.809,0.604,1.396,1.108,1.762
		s1.042,0.548,1.617,0.548c0.927,0,1.669-0.452,2.227-1.354c0.558-0.903,0.837-1.949,0.837-3.137c0-1.15-0.285-2.161-0.854-3.031
		c-0.57-0.87-1.313-1.305-2.231-1.305c-0.691,0-1.268,0.231-1.729,0.696c-0.461,0.464-0.798,1.02-1.01,1.666
		C71.235,51.907,71.129,52.504,71.129,53.051z"/>
	<path fill="#ED1C24" d="M82.854,48.716c0.476,1.032,0.92,1.944,1.33,2.736c0.495,0.948,0.88,1.735,1.156,2.363
		c0.276,0.626,0.598,1.247,0.966,1.859c0.977-1.616,2.108-3.937,3.396-6.959l2.813,0.007c0.099,0.015,0.148,0.059,0.148,0.131
		s-0.056,0.114-0.169,0.124c-0.5,0.042-0.833,0.142-1,0.3c-0.167,0.158-0.271,0.422-0.311,0.794
		c-0.04,0.373-0.079,1.065-0.117,2.078c-0.038,1.015-0.057,1.857-0.057,2.531c0,1.295,0.009,2.05,0.028,2.265
		c0.019,0.214,0.099,0.385,0.241,0.513c0.141,0.127,0.417,0.219,0.827,0.275c0.118,0.019,0.177,0.063,0.177,0.135
		c0,0.07-0.073,0.105-0.219,0.105l-2.75-0.008h-0.721c-0.16,0-0.24-0.037-0.24-0.112c0-0.066,0.054-0.105,0.163-0.12
		c0.396-0.052,0.658-0.125,0.788-0.219c0.13-0.095,0.226-0.263,0.29-0.506c0.064-0.243,0.096-0.848,0.096-1.814l0.134-3.395
		l0.07-1.677c0-0.128-0.019-0.191-0.056-0.191c-0.057,0-0.104,0.038-0.142,0.113l-1.4,2.766c-0.896,1.769-1.446,2.899-1.648,3.395
		l-0.439,1.068c-0.137,0.325-0.22,0.504-0.248,0.534c-0.028,0.03-0.062,0.046-0.099,0.046c-0.057,0-0.104-0.062-0.141-0.184
		c-0.084-0.293-0.521-1.222-1.309-2.787c-0.41-0.882-0.901-1.888-1.475-3.021c-0.573-1.131-0.883-1.722-0.93-1.771
		c-0.047-0.049-0.083-0.074-0.106-0.074c-0.047,0-0.071,0.06-0.071,0.177l-0.078,4.283l-0.021,1.412c0,0.749,0.103,1.239,0.307,1.47
		c0.206,0.231,0.499,0.347,0.88,0.347c0.245,0,0.367,0.053,0.367,0.156c0,0.075-0.059,0.112-0.177,0.112l-0.148-0.008l-0.46,0.008
		l-0.997-0.008c-0.434,0-0.992,0.024-1.675,0.071c-0.056-0.038-0.084-0.074-0.084-0.113c0-0.094,0.082-0.144,0.247-0.147
		c0.471-0.015,0.817-0.17,1.039-0.467s0.333-0.963,0.333-1.995l-0.015-1.245l0.099-3.154c0-0.735-0.108-1.239-0.325-1.51
		c-0.217-0.271-0.535-0.434-0.954-0.485c-0.179-0.022-0.269-0.07-0.269-0.145c0-0.082,0.066-0.123,0.199-0.123
		c0.07,0,0.155,0.001,0.254,0.007L82.854,48.716z"/>
	<path fill="#ED1C24" d="M104.586,48.8c0.137,0.528,0.271,1.269,0.403,2.22c-0.022,0.038-0.048,0.057-0.075,0.057
		c-0.032,0-0.066-0.019-0.105-0.057c-0.324-0.522-0.636-0.922-0.933-1.194c-0.298-0.273-0.596-0.468-0.896-0.583
		c-0.299-0.115-0.814-0.174-1.545-0.174c-0.688,0-1.232,0.04-1.634,0.12c-0.037,0.047-0.057,0.134-0.057,0.262
		c0,0.033-0.005,0.091-0.014,0.176c-0.047,0.376-0.071,1.396-0.071,3.062c0,0.07,0.005,0.17,0.015,0.297
		c0.358,0.013,0.604,0.021,0.735,0.021c0.595,0,1.025-0.088,1.291-0.266c0.267-0.178,0.498-0.56,0.697-1.147
		c0.032-0.099,0.079-0.148,0.14-0.148c0.089,0,0.133,0.068,0.133,0.205l-0.027,0.283c-0.039,0.373-0.058,0.758-0.058,1.154
		c0,0.643,0.012,1.221,0.036,1.735c0,0.16-0.044,0.241-0.13,0.241c-0.063,0-0.107-0.057-0.13-0.17
		c-0.099-0.556-0.307-0.956-0.624-1.202c-0.316-0.244-1.004-0.368-2.063-0.368c-0.015,0.345-0.021,0.901-0.021,1.669
		c0,0.994,0.035,1.626,0.106,1.894c0.07,0.269,0.24,0.482,0.509,0.641c0.27,0.157,0.724,0.236,1.365,0.236
		c1.834,0,3.018-0.631,3.551-1.895c0.064-0.155,0.131-0.232,0.201-0.232c0.075,0,0.112,0.052,0.112,0.155
		c0,0.057-0.012,0.117-0.035,0.184c-0.028,0.089-0.097,0.425-0.205,1.004c-0.022,0.122-0.113,0.489-0.269,1.102l-2.961-0.007
		c-0.424,0-1.047-0.018-1.869-0.053c-0.822-0.036-1.55-0.055-2.184-0.056c-0.635-0.003-0.965-0.016-0.993-0.04
		c-0.028-0.023-0.043-0.049-0.043-0.078c0-0.094,0.078-0.141,0.233-0.141c0.523,0,0.867-0.139,1.031-0.417
		c0.166-0.277,0.248-0.953,0.248-2.026l-0.007-1.447l0.021-1.356c0-0.272-0.015-0.79-0.045-1.549
		c-0.031-0.762-0.06-1.195-0.085-1.305c-0.026-0.107-0.099-0.214-0.22-0.32c-0.12-0.106-0.385-0.213-0.795-0.322
		c-0.123-0.032-0.184-0.085-0.184-0.155c0-0.085,0.082-0.127,0.247-0.127l1.441,0.078c0.51,0.023,1.76,0.035,3.754,0.035
		C103.89,48.793,104.559,48.796,104.586,48.8z"/>
	<path fill="#ED1C24" d="M111.632,49.218c0.129-0.128,0.214-0.259,0.256-0.396c0.037-0.113,0.092-0.169,0.162-0.169
		c0.037,0,0.08,0.023,0.128,0.069c0.032,0.171,0.08,0.512,0.142,1.025l0.169,1.329c0,0.084-0.052,0.127-0.155,0.127
		c-0.057,0-0.106-0.047-0.148-0.142c-0.251-0.617-0.62-1.131-1.11-1.541c-0.489-0.405-1.023-0.607-1.604-0.607
		c-0.569,0-0.999,0.172-1.289,0.516s-0.435,0.709-0.435,1.096c0,0.471,0.158,0.831,0.474,1.081s0.966,0.533,1.95,0.849
		c0.726,0.226,1.27,0.445,1.629,0.657c0.361,0.211,0.663,0.509,0.908,0.891c0.246,0.382,0.367,0.792,0.367,1.23
		c0,0.743-0.308,1.41-0.926,1.999c-0.616,0.589-1.373,0.883-2.268,0.883c-0.807,0-1.617-0.252-2.432-0.756
		c-0.16,0.133-0.264,0.289-0.312,0.467c-0.037,0.15-0.098,0.226-0.184,0.226c-0.076,0-0.129-0.096-0.162-0.289
		c-0.033-0.192-0.102-1.107-0.205-2.742c0.019-0.057,0.067-0.084,0.148-0.084c0.071,0,0.127,0.051,0.169,0.154
		c0.727,1.823,1.739,2.735,3.039,2.735c0.646,0,1.15-0.195,1.517-0.583c0.365-0.389,0.548-0.834,0.548-1.339
		c0-0.35-0.099-0.669-0.294-0.961c-0.195-0.293-0.454-0.528-0.777-0.707s-0.832-0.38-1.529-0.602
		c-0.896-0.286-1.505-0.56-1.827-0.815c-0.323-0.258-0.56-0.547-0.711-0.87c-0.15-0.322-0.226-0.635-0.226-0.936
		c0-0.627,0.284-1.184,0.852-1.668c0.567-0.486,1.264-0.729,2.089-0.729c0.311,0,0.637,0.05,0.979,0.148
		C110.903,48.864,111.261,49.015,111.632,49.218z"/>
	<path fill="#ED1C24" d="M121.428,49.303c0.26-0.231,0.409-0.388,0.445-0.468c0.048-0.113,0.116-0.169,0.205-0.169
		c0.095,0,0.146,0.085,0.156,0.254l0.156,2.467c0,0.142-0.007,0.227-0.019,0.259c-0.011,0.029-0.045,0.045-0.103,0.045
		c-0.075,0-0.155-0.102-0.24-0.304c-0.311-0.751-0.744-1.366-1.3-1.845c-0.562-0.476-1.169-0.713-1.823-0.713
		c-0.575,0-1.103,0.184-1.583,0.554s-0.855,0.898-1.121,1.583c-0.267,0.686-0.399,1.423-0.399,2.209
		c0,1.339,0.369,2.426,1.106,3.262c0.737,0.837,1.562,1.254,2.472,1.254c0.616,0,1.185-0.195,1.703-0.586s0.91-0.844,1.174-1.357
		c0.07-0.142,0.144-0.212,0.219-0.212c0.104,0,0.156,0.057,0.156,0.17c0,0.137-0.18,0.436-0.537,0.897
		c-0.359,0.462-0.829,0.837-1.411,1.124s-1.207,0.432-1.877,0.432c-0.787,0-1.536-0.201-2.244-0.603
		c-0.71-0.399-1.271-0.953-1.687-1.66c-0.414-0.706-0.621-1.535-0.621-2.488c0-0.933,0.2-1.773,0.604-2.522s0.971-1.331,1.701-1.745
		c0.731-0.414,1.486-0.623,2.265-0.623c0.414,0,0.839,0.065,1.273,0.195C120.532,48.841,120.976,49.038,121.428,49.303z"/>
	<path fill="#ED1C24" d="M127.559,48.532h0.327c0.526,1.078,1.253,2.923,2.177,5.533c0.599,1.673,1.007,2.698,1.229,3.078
		c0.221,0.379,0.579,0.59,1.069,0.633c0.156,0.014,0.234,0.066,0.234,0.154c0,0.066-0.041,0.1-0.12,0.1l-0.099-0.007
		c-0.435-0.038-0.985-0.058-1.655-0.058c-1.026,0-1.687,0.017-1.978,0.051c-0.146,0-0.22-0.043-0.22-0.128
		c0-0.061,0.055-0.099,0.163-0.112c0.4-0.038,0.678-0.106,0.83-0.205c0.152-0.1,0.229-0.255,0.229-0.467
		c0-0.203-0.144-0.709-0.431-1.52l-0.416-1.216c-0.245,0-1.34,0.015-3.286,0.042c-0.491,1.306-0.737,2.129-0.737,2.47
		c0,0.289,0.122,0.503,0.365,0.644c0.242,0.14,0.48,0.217,0.717,0.23c0.174,0.014,0.262,0.066,0.262,0.158
		c0,0.036-0.028,0.07-0.084,0.104c-0.754-0.034-1.209-0.051-1.364-0.051c-0.793,0-1.324,0.01-1.598,0.029
		c-0.151,0-0.227-0.042-0.227-0.127c0-0.075,0.065-0.123,0.197-0.142c0.542-0.07,0.957-0.438,1.244-1.103
		c0.288-0.665,0.735-1.859,1.344-3.584C126.291,51.472,126.899,49.969,127.559,48.532z M127.278,50.071
		c-0.44,0.896-0.952,2.196-1.537,3.902c0.484-0.024,0.834-0.035,1.046-0.035l1.986,0.035c-0.175-0.49-0.419-1.141-0.734-1.951
		C127.653,51.058,127.399,50.406,127.278,50.071z"/>
	<path fill="#ED1C24" d="M136.002,53.493c0,0.212-0.014,0.529-0.042,0.954c-0.014,0.208-0.021,0.417-0.021,0.628
		c0,0.16,0.009,0.506,0.025,1.036c0.016,0.53,0.049,0.861,0.098,0.993c0.05,0.132,0.158,0.26,0.326,0.381
		c0.167,0.124,0.347,0.189,0.54,0.198c0.216,0.015,0.325,0.064,0.325,0.149c0,0.065-0.033,0.104-0.099,0.116
		c-0.066,0.012-0.315,0.017-0.75,0.017l-1.943-0.006c-0.546,0-0.837-0.009-0.872-0.024c-0.036-0.018-0.053-0.048-0.053-0.096
		c0-0.075,0.088-0.132,0.268-0.17c0.316-0.07,0.536-0.181,0.66-0.331c0.126-0.151,0.202-0.475,0.23-0.972s0.043-1.07,0.043-1.72
		l-0.022-1.885l0.022-2.034c0-0.721-0.05-1.181-0.148-1.381c-0.1-0.2-0.293-0.326-0.58-0.378c-0.311-0.057-0.467-0.125-0.467-0.205
		c0-0.079,0.071-0.121,0.212-0.121l1.399,0.009l2.248-0.016c1.48,0,2.475,0.23,2.986,0.692c0.511,0.461,0.767,1.038,0.767,1.729
		c0,0.824-0.335,1.442-1.004,1.856c-0.669,0.415-1.675,0.622-3.017,0.622C136.808,53.536,136.43,53.521,136.002,53.493z
		 M136.002,53.21c0.693,0.024,1.086,0.036,1.181,0.036c0.48,0,0.933-0.082,1.356-0.248c0.423-0.164,0.734-0.46,0.93-0.888
		c0.195-0.429,0.293-0.853,0.293-1.271c0-0.531-0.181-0.982-0.541-1.352s-1.009-0.554-1.946-0.554c-0.484,0-0.909,0.053-1.272,0.155
		c-0.005,0.17-0.007,0.274-0.007,0.317l0.028,1.622l-0.028,1.729C135.995,52.844,135.997,52.994,136.002,53.21z"/>
	<path fill="#ED1C24" d="M149.826,48.8c0.137,0.528,0.271,1.269,0.403,2.22c-0.023,0.038-0.049,0.057-0.075,0.057
		c-0.034,0-0.068-0.019-0.105-0.057c-0.325-0.522-0.637-0.922-0.933-1.194c-0.299-0.273-0.597-0.468-0.896-0.583
		c-0.3-0.115-0.814-0.174-1.546-0.174c-0.688,0-1.232,0.04-1.633,0.12c-0.038,0.047-0.058,0.134-0.058,0.262
		c0,0.033-0.006,0.091-0.015,0.176c-0.047,0.376-0.069,1.396-0.069,3.062c0,0.07,0.004,0.17,0.014,0.297
		c0.358,0.013,0.604,0.021,0.735,0.021c0.595,0,1.025-0.088,1.292-0.266s0.498-0.56,0.696-1.147c0.032-0.099,0.079-0.148,0.14-0.148
		c0.089,0,0.134,0.068,0.134,0.205l-0.028,0.283c-0.038,0.373-0.057,0.758-0.057,1.154c0,0.643,0.011,1.221,0.036,1.735
		c0,0.16-0.044,0.241-0.13,0.241c-0.065,0-0.107-0.057-0.13-0.17c-0.101-0.556-0.309-0.956-0.624-1.202
		c-0.317-0.244-1.005-0.368-2.064-0.368c-0.014,0.345-0.021,0.901-0.021,1.669c0,0.994,0.035,1.626,0.105,1.894
		c0.072,0.269,0.241,0.482,0.511,0.641c0.268,0.157,0.723,0.236,1.364,0.236c1.834,0,3.018-0.631,3.55-1.895
		c0.065-0.155,0.134-0.232,0.203-0.232c0.075,0,0.112,0.052,0.112,0.155c0,0.057-0.013,0.117-0.035,0.184
		c-0.029,0.089-0.097,0.425-0.205,1.004c-0.024,0.122-0.113,0.489-0.269,1.102l-2.962-0.007c-0.425,0-1.047-0.018-1.869-0.053
		c-0.822-0.036-1.551-0.055-2.184-0.056c-0.634-0.003-0.966-0.016-0.993-0.04c-0.029-0.023-0.043-0.049-0.043-0.078
		c0-0.094,0.078-0.141,0.233-0.141c0.523,0,0.867-0.139,1.032-0.417c0.165-0.277,0.247-0.953,0.247-2.026l-0.007-1.447l0.021-1.356
		c0-0.272-0.015-0.79-0.046-1.549c-0.031-0.762-0.06-1.195-0.084-1.305c-0.027-0.107-0.1-0.214-0.221-0.32
		c-0.119-0.106-0.385-0.213-0.795-0.322c-0.122-0.032-0.184-0.085-0.184-0.155c0-0.085,0.082-0.127,0.248-0.127l1.441,0.078
		c0.509,0.023,1.76,0.035,3.753,0.035C149.129,48.793,149.798,48.796,149.826,48.8z"/>
</g>
<g>
	<path fill="#FFFFFF" stroke="#ED1C24" stroke-width="2" stroke-miterlimit="10" d="M50.277,46.282c-0.1,0-0.2-0.126-0.2-0.226
		V27.786c0-0.125,0.075-0.25,0.2-0.25h6.698c0.125,0,0.225,0.1,0.25,0.25l0.75,4.974c0.024,0.176,0.074,0.25,0.125,0.25
		c0.05,0,0.099-0.1,0.099-0.275l0.601-4.923c0.025-0.15,0.125-0.275,0.275-0.275h6.948c0.175,0,0.276,0.1,0.276,0.275v18.221
		c0,0.149-0.125,0.25-0.276,0.25h-4.523c-0.15,0-0.275-0.101-0.275-0.275v-7.823c0-0.2-0.025-0.275-0.074-0.275
		c-0.051,0-0.101,0.101-0.175,0.5l-1.3,7.673c-0.025,0.15-0.149,0.201-0.275,0.201h-2.825c-0.125,0-0.224-0.101-0.273-0.275
		l-1.15-7.148c-0.077-0.426-0.176-0.5-0.25-0.5c-0.076,0-0.126,0.125-0.126,0.324v7.324c0,0.175-0.075,0.275-0.25,0.275H50.277z"/>
</g>
<g>
	<path fill="#ED1C24" d="M155.047,22.512c0.01,0,0.015,0.006,0.015,0.017v0.426c0,0.011,0.003,0.019,0.008,0.019
		c0.004,0,0.009-0.004,0.014-0.029l0.066-0.417c0.004-0.01,0.009-0.017,0.017-0.017h0.164c0.008,0,0.016,0.003,0.017,0.012
		l0.075,0.447c0.005,0.023,0.009,0.029,0.011,0.029c0.003,0,0.005-0.004,0.005-0.017v-0.455c0-0.01,0.007-0.017,0.016-0.017h0.264
		c0.009,0,0.016,0.006,0.016,0.015v1.062c0,0.01-0.006,0.016-0.016,0.016h-0.405c-0.008,0-0.015-0.007-0.016-0.016l-0.035-0.287
		c0-0.011-0.002-0.017-0.006-0.017c-0.003,0-0.006,0.005-0.007,0.015l-0.044,0.291c-0.002,0.008-0.007,0.014-0.015,0.014h-0.391
		c-0.007,0-0.011-0.007-0.011-0.014v-1.064c0-0.006,0.005-0.014,0.011-0.014H155.047z"/>
</g>
<path fill="#FFFFFF" d="M156.493,5.101c-0.102,0-0.177,0.04-0.227,0.101c-0.042-0.007-0.086-0.007-0.131,0.002
	c-0.167,0.035-0.33,0.09-0.489,0.153c-0.003,0.001-0.006,0.003-0.009,0.004c-0.136,0.119-0.302,0.208-0.502,0.254
	c-0.072,0.043-0.146,0.086-0.221,0.128c-0.058,0.058-0.126,0.108-0.197,0.152c-0.057,0.063-0.122,0.121-0.194,0.17
	c-0.003,0.006-0.007,0.012-0.009,0.019c-0.014,0.002-0.025,0.009-0.038,0.012c-0.037,0.022-0.075,0.043-0.116,0.062l-0.001,0.001
	c-0.013,0.012-0.023,0.025-0.033,0.04c0,0.001,0,0.001-0.002,0.002c-0.009,0.014-0.017,0.028-0.024,0.044
	c0,0.002-0.001,0.003-0.002,0.005c-0.006,0.014-0.011,0.029-0.016,0.044v0.003c-0.354,0.04-0.343,0.607,0.038,0.607
	c0.159,0,0.253-0.099,0.284-0.218c0.007-0.001,0.016-0.001,0.024-0.002c0.006-0.001,0.013-0.003,0.02-0.005
	c0.013-0.004,0.024-0.007,0.037-0.012c0.007-0.003,0.014-0.006,0.02-0.009c0.01-0.005,0.019-0.011,0.026-0.016
	s0.015-0.01,0.021-0.015c0.006-0.004,0.012-0.01,0.017-0.015c0.04-0.039,0.067-0.089,0.081-0.144
	c0.063-0.011,0.124-0.039,0.176-0.083c0.208-0.173,0.465-0.27,0.686-0.427c0.032,0.002,0.065,0,0.099-0.014
	c0.159-0.063,0.32-0.118,0.489-0.153c0.058-0.013,0.105-0.044,0.144-0.087c0.016,0.003,0.032,0.005,0.051,0.005
	C156.888,5.713,156.888,5.101,156.493,5.101z"/>
<circle fill="#ED1C24" cx="162.348" cy="12.463" r="3.644"/>
<g>
	<path fill="#ED1C24" d="M162.737,8.894c-0.018,0-0.025-0.011-0.025-0.029V8.086c0-0.021-0.006-0.035-0.015-0.035
		c-0.007,0-0.018,0.009-0.026,0.054l-0.122,0.76c-0.006,0.018-0.017,0.029-0.029,0.029h-0.299c-0.015,0-0.028-0.005-0.03-0.021
		l-0.139-0.815c-0.009-0.043-0.013-0.054-0.018-0.054c-0.007,0-0.009,0.008-0.009,0.029v0.832c0,0.018-0.014,0.029-0.029,0.029
		h-0.48c-0.016,0-0.03-0.011-0.03-0.026V6.931c0-0.019,0.011-0.03,0.03-0.03h0.738c0.016,0,0.026,0.013,0.028,0.03l0.064,0.523
		c0,0.019,0.005,0.029,0.011,0.029c0.005,0,0.011-0.009,0.014-0.027l0.079-0.529c0.004-0.016,0.013-0.026,0.026-0.026h0.713
		c0.013,0,0.021,0.013,0.021,0.026V8.87c0,0.011-0.011,0.024-0.021,0.024H162.737z"/>
</g>
<g>
	<path fill="#ED1C24" d="M165.146,10.181c-0.013-0.013-0.013-0.025,0.002-0.04l0.551-0.55c0.014-0.015,0.02-0.028,0.014-0.034
		c-0.005-0.005-0.018-0.008-0.056,0.019l-0.625,0.452c-0.016,0.01-0.031,0.01-0.04,0l-0.212-0.213
		c-0.01-0.009-0.016-0.021-0.006-0.035l0.479-0.675c0.024-0.036,0.027-0.046,0.024-0.051c-0.004-0.003-0.013,0-0.027,0.015
		l-0.589,0.588c-0.012,0.013-0.029,0.012-0.04,0l-0.34-0.339c-0.012-0.011-0.015-0.029-0.002-0.04l1.369-1.37
		c0.014-0.013,0.028-0.013,0.042,0l0.522,0.522c0.011,0.011,0.01,0.028,0,0.041l-0.325,0.416c-0.014,0.013-0.018,0.023-0.014,0.028
		c0.005,0.003,0.014,0.002,0.028-0.01l0.431-0.317c0.013-0.009,0.027-0.009,0.037,0l0.504,0.503c0.01,0.01,0.006,0.024-0.004,0.033
		l-1.374,1.374c-0.007,0.008-0.024,0.01-0.031,0.002L165.146,10.181z"/>
</g>
<g>
	<path fill="#ED1C24" d="M165.992,12.853c0-0.02,0.011-0.026,0.03-0.026h0.778c0.021,0,0.033-0.005,0.033-0.013
		s-0.007-0.02-0.053-0.027l-0.759-0.122c-0.02-0.005-0.03-0.017-0.03-0.029v-0.301c0-0.014,0.006-0.027,0.021-0.03l0.815-0.138
		c0.043-0.008,0.054-0.014,0.054-0.018c0-0.005-0.008-0.008-0.029-0.008h-0.831c-0.02,0-0.03-0.014-0.03-0.03v-0.48
		c0-0.016,0.011-0.03,0.026-0.03h1.938c0.019,0,0.029,0.012,0.029,0.03v0.738c0,0.017-0.013,0.026-0.029,0.029l-0.523,0.064
		c-0.018,0-0.029,0.006-0.029,0.01c0,0.006,0.008,0.012,0.027,0.014l0.528,0.079c0.016,0.003,0.026,0.014,0.026,0.027v0.712
		c0,0.013-0.013,0.022-0.026,0.022h-1.942c-0.011,0-0.024-0.01-0.024-0.022V12.853z"/>
</g>
<g>
	<path fill="#ED1C24" d="M158.781,13.304c0,0.012-0.013,0.022-0.022,0.022h-1.943c-0.014,0-0.026-0.009-0.026-0.022v-0.712
		c0-0.013,0.011-0.023,0.026-0.027l0.528-0.079c0.02-0.002,0.027-0.008,0.027-0.014c0-0.004-0.011-0.01-0.029-0.01l-0.524-0.064
		c-0.016-0.003-0.028-0.013-0.028-0.029V11.63c0-0.018,0.011-0.03,0.028-0.03h1.938c0.018,0,0.026,0.014,0.026,0.03v0.48
		c0,0.016-0.009,0.03-0.028,0.03h-0.832c-0.021,0-0.029,0.003-0.029,0.008c0,0.004,0.011,0.01,0.054,0.018l0.815,0.138
		c0.016,0.003,0.021,0.016,0.021,0.03v0.301c0,0.012-0.009,0.024-0.028,0.029l-0.761,0.122c-0.045,0.008-0.053,0.02-0.053,0.027
		s0.013,0.013,0.034,0.013h0.779c0.02,0,0.028,0.007,0.028,0.026V13.304z"/>
</g>
<g>
	<path fill="#ED1C24" d="M161.959,16.06c0.019,0,0.026,0.011,0.026,0.03v0.779c0,0.02,0.006,0.033,0.014,0.033
		s0.018-0.007,0.026-0.053l0.122-0.759c0.006-0.019,0.017-0.03,0.029-0.03h0.3c0.014,0,0.027,0.005,0.029,0.021l0.139,0.815
		c0.008,0.043,0.014,0.054,0.02,0.054c0.004,0,0.007-0.008,0.007-0.029V16.09c0-0.019,0.014-0.03,0.03-0.03h0.48
		c0.016,0,0.029,0.011,0.029,0.026v1.938c0,0.018-0.011,0.029-0.029,0.029h-0.738c-0.017,0-0.026-0.013-0.03-0.029l-0.063-0.523
		c0-0.019-0.005-0.029-0.011-0.029s-0.012,0.008-0.014,0.026l-0.08,0.529c-0.002,0.016-0.013,0.026-0.026,0.026h-0.712
		c-0.014,0-0.021-0.013-0.021-0.026v-1.943c0-0.011,0.011-0.024,0.021-0.024H161.959z"/>
</g>
<g>
	<path fill="#ED1C24" d="M159.201,10.501c-0.009,0.007-0.025,0.005-0.033-0.002l-1.374-1.374c-0.009-0.009-0.013-0.023-0.003-0.033
		l0.503-0.503c0.01-0.009,0.025-0.009,0.039,0l0.43,0.317c0.015,0.012,0.024,0.013,0.027,0.01c0.004-0.004,0-0.015-0.013-0.028
		l-0.325-0.416c-0.009-0.013-0.011-0.03,0-0.041l0.522-0.522c0.013-0.013,0.028-0.013,0.042,0l1.369,1.37
		c0.012,0.011,0.009,0.029-0.001,0.04l-0.341,0.339c-0.011,0.012-0.027,0.013-0.042,0l-0.587-0.588
		c-0.016-0.015-0.023-0.018-0.026-0.015c-0.004,0.004,0,0.015,0.024,0.051l0.479,0.675c0.01,0.013,0.004,0.025-0.005,0.035
		l-0.213,0.213c-0.01,0.01-0.024,0.01-0.042,0l-0.624-0.452c-0.037-0.026-0.049-0.023-0.056-0.019c-0.006,0.005,0,0.019,0.016,0.034
		l0.551,0.55c0.013,0.014,0.014,0.026,0.001,0.04L159.201,10.501z"/>
</g>
<g>
	<path fill="#ED1C24" d="M165.574,14.225c0.008-0.008,0.023-0.005,0.031,0.001l1.374,1.374c0.01,0.01,0.014,0.025,0.004,0.033
		l-0.504,0.504c-0.008,0.01-0.024,0.01-0.036,0l-0.432-0.318c-0.014-0.01-0.024-0.013-0.028-0.009c-0.003,0.004,0,0.015,0.015,0.028
		l0.324,0.415c0.009,0.014,0.012,0.031,0,0.042l-0.522,0.522c-0.014,0.014-0.028,0.014-0.042,0l-1.37-1.37
		c-0.011-0.012-0.009-0.028,0.002-0.04l0.341-0.339c0.012-0.012,0.028-0.014,0.042,0l0.587,0.587
		c0.016,0.015,0.022,0.02,0.026,0.015c0.004-0.003,0-0.015-0.024-0.051l-0.479-0.674c-0.009-0.013-0.004-0.026,0.005-0.036
		l0.213-0.212c0.01-0.009,0.023-0.008,0.041,0l0.625,0.451c0.036,0.026,0.051,0.025,0.056,0.02s0-0.02-0.016-0.033l-0.55-0.551
		c-0.013-0.013-0.016-0.027-0.003-0.041L165.574,14.225z"/>
</g>
<g>
	<path fill="#ED1C24" d="M159.52,14.773c0.013,0.013,0.012,0.026-0.001,0.04l-0.551,0.551c-0.016,0.015-0.021,0.028-0.016,0.033
		c0.007,0.006,0.019,0.008,0.056-0.019l0.624-0.451c0.018-0.01,0.032-0.01,0.042-0.001l0.213,0.213
		c0.009,0.009,0.015,0.022,0.005,0.036l-0.479,0.674c-0.024,0.036-0.028,0.047-0.024,0.051c0.003,0.004,0.011,0,0.026-0.015
		l0.587-0.588c0.015-0.013,0.031-0.011,0.042,0l0.341,0.34c0.01,0.01,0.013,0.028,0.001,0.039l-1.369,1.37
		c-0.014,0.013-0.029,0.013-0.042,0l-0.522-0.522c-0.011-0.01-0.009-0.028,0-0.041l0.325-0.416c0.013-0.013,0.017-0.024,0.013-0.028
		c-0.003-0.003-0.013-0.001-0.027,0.01l-0.43,0.317c-0.014,0.01-0.029,0.01-0.039,0l-0.503-0.504
		c-0.01-0.009-0.006-0.023,0.003-0.032l1.374-1.375c0.008-0.007,0.024-0.009,0.033-0.001L159.52,14.773z"/>
</g>
<circle fill="#FFFFFF" stroke="#FFFFFF" stroke-miterlimit="10" cx="162.348" cy="12.463" r="2.382"/>
<circle fill="#ED1C24" cx="155.26" cy="20.541" r="1.997"/>
<g>
	<path fill="#ED1C24" d="M155.474,18.584c-0.01,0-0.015-0.005-0.015-0.016v-0.427c0-0.011-0.003-0.019-0.008-0.019
		c-0.003,0-0.01,0.004-0.014,0.03l-0.067,0.417c-0.003,0.01-0.009,0.016-0.016,0.016h-0.165c-0.008,0-0.015-0.002-0.017-0.011
		l-0.075-0.447c-0.004-0.024-0.008-0.03-0.011-0.03c-0.002,0-0.004,0.005-0.004,0.017v0.456c0,0.01-0.007,0.016-0.016,0.016h-0.265
		c-0.009,0-0.015-0.005-0.015-0.014v-1.063c0-0.01,0.005-0.016,0.015-0.016h0.405c0.009,0,0.015,0.007,0.018,0.016l0.033,0.288
		c0,0.01,0.003,0.016,0.007,0.016c0.002,0,0.005-0.004,0.007-0.015l0.044-0.29c0.001-0.009,0.007-0.015,0.014-0.015h0.392
		c0.007,0,0.011,0.007,0.011,0.015v1.064c0,0.006-0.006,0.013-0.011,0.013H155.474z"/>
</g>
<g>
	<path fill="#ED1C24" d="M156.793,19.291c-0.007-0.008-0.007-0.015,0.001-0.022l0.302-0.302c0.008-0.009,0.011-0.016,0.008-0.02
		c-0.002-0.002-0.009-0.003-0.03,0.011l-0.342,0.247c-0.011,0.005-0.018,0.005-0.022,0l-0.117-0.116
		c-0.006-0.005-0.008-0.012-0.003-0.02l0.263-0.369c0.014-0.02,0.015-0.026,0.014-0.028c-0.002-0.002-0.007,0-0.015,0.008
		l-0.322,0.323c-0.007,0.007-0.017,0.006-0.022,0l-0.187-0.186c-0.007-0.007-0.008-0.016-0.002-0.023l0.751-0.75
		c0.007-0.007,0.016-0.007,0.022,0l0.287,0.287c0.006,0.006,0.006,0.016,0,0.023L157.2,18.58c-0.008,0.007-0.009,0.013-0.008,0.016
		c0.002,0.002,0.008,0.001,0.017-0.005l0.234-0.175c0.007-0.004,0.016-0.004,0.021,0l0.275,0.277
		c0.005,0.004,0.003,0.012-0.002,0.018l-0.752,0.753c-0.005,0.004-0.015,0.005-0.018,0.001L156.793,19.291z"/>
</g>
<g>
	<path fill="#ED1C24" d="M157.258,20.754c0-0.01,0.005-0.014,0.016-0.014h0.427c0.012,0,0.019-0.003,0.019-0.008
		c0-0.004-0.004-0.01-0.028-0.014l-0.417-0.067c-0.011-0.003-0.016-0.008-0.016-0.016v-0.164c0-0.008,0.004-0.015,0.011-0.017
		l0.448-0.075c0.023-0.004,0.028-0.007,0.028-0.011c0-0.002-0.004-0.004-0.016-0.004h-0.456c-0.011,0-0.016-0.007-0.016-0.016
		v-0.264c0-0.009,0.005-0.016,0.014-0.016h1.063c0.01,0,0.017,0.006,0.017,0.016v0.405c0,0.009-0.008,0.015-0.017,0.016
		l-0.287,0.035c-0.011,0-0.016,0.004-0.016,0.006c0,0.003,0.004,0.005,0.014,0.007l0.29,0.044c0.009,0.002,0.016,0.007,0.016,0.014
		v0.391c0,0.007-0.008,0.011-0.016,0.011h-1.064c-0.006,0-0.013-0.006-0.013-0.011V20.754z"/>
</g>
<g>
	<path fill="#ED1C24" d="M153.305,21.002c0,0.005-0.007,0.011-0.013,0.011h-1.063c-0.009,0-0.016-0.004-0.016-0.011v-0.391
		c0-0.007,0.006-0.012,0.016-0.014l0.289-0.044c0.011-0.001,0.015-0.003,0.015-0.007c0-0.002-0.006-0.006-0.017-0.006l-0.286-0.035
		c-0.01-0.001-0.017-0.007-0.017-0.016v-0.405c0-0.01,0.006-0.016,0.017-0.016h1.062c0.009,0,0.014,0.007,0.014,0.016v0.264
		c0,0.009-0.005,0.016-0.016,0.016h-0.456c-0.011,0-0.016,0.002-0.016,0.004c0,0.004,0.006,0.006,0.029,0.011l0.447,0.075
		c0.009,0.002,0.011,0.009,0.011,0.017v0.164c0,0.008-0.005,0.013-0.016,0.016l-0.416,0.067c-0.025,0.004-0.029,0.01-0.029,0.014
		c0,0.005,0.007,0.008,0.02,0.008h0.426c0.011,0,0.016,0.004,0.016,0.014V21.002z"/>
</g>
<g>
	<path fill="#ED1C24" d="M153.535,19.465c-0.005,0.004-0.015,0.003-0.018-0.001l-0.753-0.753c-0.005-0.005-0.008-0.013-0.003-0.018
		l0.276-0.277c0.006-0.004,0.014-0.004,0.021,0l0.236,0.175c0.009,0.006,0.014,0.007,0.016,0.005c0.002-0.002,0-0.009-0.007-0.016
		l-0.18-0.227c-0.005-0.007-0.005-0.017,0-0.023l0.287-0.287c0.007-0.007,0.016-0.007,0.022,0l0.752,0.75
		c0.005,0.007,0.004,0.016-0.002,0.023l-0.186,0.186c-0.007,0.006-0.016,0.007-0.023,0l-0.322-0.323
		c-0.009-0.008-0.013-0.01-0.015-0.008c-0.002,0.001,0,0.008,0.013,0.028l0.264,0.369c0.005,0.008,0.002,0.015-0.003,0.02
		l-0.117,0.116c-0.005,0.005-0.013,0.005-0.022,0l-0.342-0.247c-0.021-0.014-0.028-0.013-0.03-0.011
		c-0.004,0.004,0,0.011,0.008,0.02l0.301,0.302c0.008,0.007,0.009,0.014,0.002,0.022L153.535,19.465z"/>
</g>
<g>
	<path fill="#ED1C24" d="M157.028,21.506c0.004-0.004,0.014-0.003,0.018,0.002l0.752,0.752c0.005,0.005,0.008,0.014,0.004,0.019
		l-0.277,0.275c-0.006,0.005-0.014,0.005-0.021,0l-0.235-0.174c-0.009-0.006-0.015-0.007-0.016-0.004
		c-0.002,0.001,0,0.008,0.007,0.015l0.179,0.228c0.005,0.007,0.005,0.017,0,0.023l-0.287,0.286c-0.007,0.008-0.015,0.008-0.021,0
		l-0.752-0.75c-0.006-0.006-0.005-0.015,0.001-0.022l0.188-0.187c0.006-0.006,0.015-0.007,0.021,0l0.322,0.322
		c0.009,0.009,0.013,0.011,0.015,0.009c0.002-0.002,0-0.009-0.013-0.028l-0.263-0.37c-0.006-0.007-0.002-0.014,0.003-0.019
		l0.116-0.117c0.005-0.004,0.014-0.004,0.022,0l0.342,0.248c0.021,0.014,0.028,0.013,0.032,0.01c0.002-0.003,0-0.011-0.009-0.02
		l-0.302-0.301c-0.007-0.007-0.009-0.015-0.002-0.022L157.028,21.506z"/>
</g>
<g>
	<path fill="#ED1C24" d="M153.71,21.807c0.007,0.007,0.006,0.014-0.002,0.021l-0.301,0.303c-0.008,0.008-0.012,0.015-0.008,0.019
		c0.002,0.003,0.009,0.004,0.03-0.011l0.342-0.247c0.01-0.005,0.018-0.005,0.022,0l0.117,0.116c0.005,0.005,0.008,0.013,0.003,0.02
		l-0.264,0.37c-0.013,0.019-0.015,0.025-0.013,0.027c0.002,0.003,0.006,0,0.015-0.008l0.322-0.323c0.008-0.006,0.017-0.005,0.023,0
		l0.186,0.187c0.006,0.006,0.007,0.016,0.002,0.022l-0.752,0.75c-0.007,0.007-0.016,0.007-0.022,0l-0.287-0.286
		c-0.005-0.007-0.005-0.016,0-0.022l0.18-0.228c0.007-0.007,0.009-0.013,0.007-0.015c-0.002-0.002-0.007-0.001-0.016,0.004
		l-0.236,0.175c-0.007,0.005-0.015,0.005-0.021,0l-0.276-0.276c-0.005-0.005-0.002-0.013,0.003-0.019l0.753-0.753
		c0.003-0.003,0.013-0.004,0.018-0.001L153.71,21.807z"/>
</g>
<circle fill="#FFFFFF" cx="155.26" cy="20.541" r="1.306"/>
<circle fill="#ED1C24" cx="170.28" cy="17.221" r="2.431"/>
<g>
	<path fill="#ED1C24" d="M170.54,14.84c-0.013,0-0.018-0.007-0.018-0.019v-0.52c0-0.014-0.004-0.023-0.01-0.023
		s-0.012,0.005-0.018,0.036l-0.082,0.507c-0.003,0.011-0.011,0.019-0.02,0.019h-0.199c-0.009,0-0.019-0.004-0.02-0.014l-0.093-0.543
		c-0.006-0.029-0.009-0.036-0.013-0.036c-0.003,0-0.005,0.005-0.005,0.02v0.555c0,0.011-0.009,0.019-0.02,0.019h-0.32
		c-0.011,0-0.02-0.007-0.02-0.018v-1.292c0-0.013,0.007-0.021,0.02-0.021h0.492c0.011,0,0.018,0.009,0.02,0.021l0.042,0.349
		c0,0.012,0.004,0.02,0.008,0.02c0.003,0,0.007-0.005,0.009-0.018l0.054-0.354c0.001-0.01,0.009-0.018,0.018-0.018h0.475
		c0.009,0,0.015,0.009,0.015,0.018v1.296c0,0.008-0.007,0.016-0.015,0.016H170.54z"/>
</g>
<g>
	<path fill="#ED1C24" d="M172.146,15.698c-0.009-0.008-0.009-0.017,0-0.026l0.368-0.367c0.01-0.01,0.014-0.019,0.01-0.023
		c-0.004-0.003-0.013-0.005-0.037,0.013l-0.417,0.3c-0.011,0.006-0.021,0.006-0.027,0.001l-0.142-0.142
		c-0.006-0.006-0.011-0.015-0.004-0.023l0.319-0.45c0.017-0.024,0.02-0.033,0.017-0.034c-0.002-0.003-0.008,0-0.018,0.01
		l-0.392,0.392c-0.009,0.009-0.021,0.008-0.028,0l-0.226-0.227c-0.009-0.007-0.009-0.02-0.002-0.026l0.913-0.914
		c0.009-0.009,0.02-0.009,0.028,0l0.348,0.348c0.009,0.008,0.007,0.019,0,0.028l-0.216,0.277c-0.009,0.009-0.013,0.016-0.009,0.018
		c0.002,0.003,0.009,0.002,0.019-0.006l0.286-0.212c0.009-0.006,0.02-0.006,0.025,0l0.336,0.337
		c0.006,0.006,0.004,0.016-0.003,0.022l-0.916,0.916c-0.005,0.005-0.016,0.007-0.021,0.001L172.146,15.698z"/>
</g>
<g>
	<path fill="#ED1C24" d="M172.711,17.48c0-0.013,0.007-0.018,0.019-0.018h0.52c0.014,0,0.022-0.004,0.022-0.009
		c0-0.005-0.005-0.013-0.035-0.018l-0.507-0.082c-0.012-0.004-0.019-0.011-0.019-0.02v-0.201c0-0.009,0.003-0.018,0.014-0.02
		l0.544-0.092c0.028-0.005,0.035-0.009,0.035-0.012s-0.006-0.005-0.02-0.005h-0.555c-0.012,0-0.019-0.009-0.019-0.02v-0.321
		c0-0.01,0.007-0.02,0.018-0.02h1.292c0.013,0,0.02,0.008,0.02,0.02v0.493c0,0.011-0.009,0.019-0.02,0.02l-0.349,0.042
		c-0.014,0-0.02,0.003-0.02,0.008c0,0.003,0.004,0.007,0.018,0.009l0.353,0.053c0.011,0.002,0.018,0.009,0.018,0.019v0.475
		c0,0.009-0.009,0.014-0.018,0.014h-1.296c-0.007,0-0.016-0.008-0.016-0.014V17.48z"/>
</g>
<g>
	<path fill="#ED1C24" d="M167.901,17.782c0,0.006-0.01,0.014-0.017,0.014h-1.296c-0.008,0-0.018-0.005-0.018-0.014v-0.475
		c0-0.01,0.007-0.017,0.018-0.019l0.354-0.053c0.013-0.001,0.019-0.005,0.019-0.009c0-0.004-0.009-0.008-0.021-0.008l-0.349-0.042
		c-0.011-0.001-0.021-0.009-0.021-0.02v-0.493c0-0.012,0.007-0.02,0.021-0.02h1.291c0.011,0,0.019,0.01,0.019,0.02v0.321
		c0,0.011-0.008,0.02-0.021,0.02h-0.554c-0.015,0-0.02,0.002-0.02,0.005s0.007,0.007,0.035,0.012l0.545,0.092
		c0.01,0.002,0.014,0.011,0.014,0.02v0.201c0,0.009-0.008,0.016-0.021,0.02l-0.507,0.082c-0.029,0.005-0.035,0.012-0.035,0.018
		c0,0.005,0.009,0.009,0.023,0.009h0.519c0.013,0,0.021,0.005,0.021,0.018V17.782z"/>
</g>
<g>
	<path fill="#ED1C24" d="M170.021,19.619c0.013,0,0.018,0.008,0.018,0.02v0.52c0,0.013,0.003,0.022,0.009,0.022
		c0.005,0,0.013-0.004,0.018-0.035l0.081-0.507c0.003-0.012,0.011-0.02,0.02-0.02h0.201c0.009,0,0.018,0.003,0.02,0.015l0.092,0.544
		c0.005,0.028,0.009,0.036,0.012,0.036c0.004,0,0.006-0.005,0.006-0.02v-0.554c0-0.012,0.01-0.02,0.02-0.02h0.32
		c0.012,0,0.021,0.008,0.021,0.018v1.292c0,0.012-0.007,0.02-0.021,0.02h-0.492c-0.011,0-0.018-0.009-0.02-0.02l-0.043-0.349
		c0-0.012-0.004-0.019-0.007-0.019c-0.004,0-0.008,0.005-0.009,0.017l-0.053,0.354c-0.002,0.01-0.009,0.018-0.018,0.018h-0.476
		c-0.009,0-0.014-0.009-0.014-0.018v-1.296c0-0.008,0.007-0.017,0.014-0.017H170.021z"/>
</g>
<g>
	<path fill="#ED1C24" d="M168.18,15.911c-0.005,0.006-0.017,0.004-0.021-0.001l-0.915-0.916c-0.008-0.007-0.009-0.017-0.004-0.022
		l0.337-0.337c0.006-0.006,0.016-0.006,0.024,0l0.287,0.212c0.01,0.008,0.017,0.009,0.019,0.006c0.003-0.002,0-0.009-0.009-0.018
		l-0.216-0.277c-0.007-0.009-0.009-0.02,0-0.028l0.349-0.348c0.009-0.009,0.019-0.009,0.027,0l0.913,0.914
		c0.008,0.007,0.007,0.019-0.001,0.026l-0.227,0.227c-0.008,0.008-0.019,0.009-0.027,0l-0.393-0.392
		c-0.011-0.01-0.016-0.013-0.018-0.01c-0.004,0.001,0,0.01,0.016,0.034l0.32,0.45c0.006,0.009,0.002,0.018-0.005,0.023l-0.141,0.142
		c-0.007,0.005-0.017,0.005-0.027-0.001l-0.417-0.3c-0.025-0.018-0.034-0.016-0.037-0.013c-0.004,0.004,0,0.013,0.011,0.023
		l0.366,0.367c0.009,0.009,0.011,0.018,0.002,0.026L168.18,15.911z"/>
</g>
<g>
	<path fill="#ED1C24" d="M172.432,18.396c0.005-0.005,0.016-0.004,0.021,0.001l0.915,0.916c0.007,0.006,0.009,0.017,0.004,0.023
		l-0.337,0.336c-0.006,0.006-0.016,0.006-0.024,0l-0.287-0.212c-0.01-0.008-0.017-0.009-0.02-0.006c-0.002,0.002,0,0.009,0.01,0.019
		l0.216,0.276c0.007,0.009,0.008,0.02,0,0.028l-0.348,0.348c-0.009,0.009-0.02,0.009-0.027,0l-0.915-0.914
		c-0.008-0.007-0.006-0.019,0.001-0.026l0.229-0.227c0.007-0.007,0.019-0.008,0.027,0l0.392,0.393
		c0.011,0.011,0.016,0.013,0.018,0.011c0.003-0.003,0-0.011-0.016-0.034l-0.32-0.451c-0.006-0.009-0.003-0.017,0.004-0.023
		l0.142-0.142c0.006-0.007,0.017-0.007,0.027,0l0.416,0.301c0.025,0.018,0.034,0.017,0.038,0.012c0.003-0.003,0-0.012-0.011-0.021
		l-0.366-0.368c-0.009-0.009-0.011-0.018-0.002-0.026L172.432,18.396z"/>
</g>
<g>
	<path fill="#ED1C24" d="M168.394,18.761c0.009,0.01,0.007,0.019-0.002,0.026l-0.366,0.367c-0.011,0.011-0.015,0.02-0.011,0.023
		c0.003,0.003,0.012,0.005,0.037-0.012l0.417-0.302c0.011-0.006,0.021-0.006,0.027,0l0.141,0.142
		c0.007,0.007,0.011,0.015,0.005,0.024l-0.32,0.449c-0.016,0.023-0.02,0.031-0.016,0.034c0.002,0.002,0.007,0,0.018-0.011
		l0.393-0.392c0.009-0.009,0.02-0.007,0.027,0l0.227,0.228c0.008,0.008,0.009,0.019,0.001,0.026l-0.913,0.914
		c-0.009,0.008-0.019,0.008-0.027,0l-0.349-0.348c-0.009-0.008-0.007-0.02,0-0.028l0.216-0.277c0.009-0.009,0.012-0.016,0.009-0.019
		c-0.002-0.002-0.009-0.002-0.019,0.006l-0.287,0.211c-0.009,0.007-0.019,0.007-0.024,0l-0.337-0.335
		c-0.005-0.007-0.004-0.017,0.004-0.022l0.915-0.917c0.005-0.005,0.017-0.006,0.021-0.001L168.394,18.761z"/>
</g>
<circle fill="#FFFFFF" cx="170.28" cy="17.221" r="1.588"/>
<circle fill="#ED1C24" cx="154.117" cy="14.837" r="1.997"/>
<g>
	<path fill="#ED1C24" d="M154.33,12.881c-0.011,0-0.015-0.005-0.015-0.016v-0.426c0-0.011-0.003-0.02-0.007-0.02
		c-0.006,0-0.011,0.004-0.015,0.029l-0.068,0.417c-0.002,0.01-0.009,0.016-0.016,0.016h-0.164c-0.008,0-0.015-0.002-0.017-0.011
		l-0.075-0.446c-0.005-0.024-0.007-0.03-0.011-0.03c-0.002,0-0.004,0.004-0.004,0.016v0.456c0,0.01-0.007,0.016-0.016,0.016h-0.265
		c-0.009,0-0.016-0.005-0.016-0.014v-1.062c0-0.011,0.006-0.016,0.016-0.016h0.406c0.008,0,0.014,0.007,0.015,0.016l0.036,0.287
		c0,0.01,0.003,0.016,0.005,0.016c0.003,0,0.007-0.004,0.008-0.014l0.044-0.29c0.001-0.009,0.007-0.014,0.015-0.014h0.39
		c0.007,0,0.012,0.007,0.012,0.014v1.065c0,0.006-0.006,0.012-0.012,0.012H154.33z"/>
</g>
<g>
	<path fill="#ED1C24" d="M155.649,13.587c-0.008-0.008-0.007-0.015,0-0.022l0.303-0.302c0.008-0.008,0.012-0.015,0.008-0.019
		c-0.003-0.002-0.011-0.003-0.03,0.011l-0.342,0.247c-0.01,0.005-0.018,0.005-0.022,0l-0.117-0.117
		c-0.006-0.004-0.008-0.012-0.003-0.019l0.263-0.37c0.014-0.019,0.016-0.025,0.014-0.028c-0.002-0.002-0.007,0-0.015,0.009
		l-0.322,0.322c-0.008,0.008-0.017,0.006-0.022,0l-0.187-0.186c-0.007-0.006-0.008-0.016-0.001-0.022l0.75-0.75
		c0.007-0.007,0.016-0.007,0.023,0l0.285,0.287c0.007,0.006,0.006,0.015,0,0.022l-0.177,0.228c-0.007,0.007-0.01,0.013-0.007,0.015
		c0.002,0.002,0.007,0.002,0.015-0.004l0.235-0.174c0.008-0.005,0.017-0.005,0.021,0l0.275,0.276
		c0.005,0.005,0.004,0.013-0.002,0.018l-0.753,0.753c-0.005,0.003-0.014,0.004-0.017,0.001L155.649,13.587z"/>
</g>
<g>
	<path fill="#ED1C24" d="M156.114,15.051c0-0.009,0.006-0.015,0.016-0.015h0.427c0.012,0,0.019-0.003,0.019-0.007
		s-0.004-0.009-0.029-0.015l-0.416-0.067c-0.01-0.002-0.016-0.008-0.016-0.016v-0.165c0-0.007,0.002-0.014,0.011-0.016l0.447-0.076
		c0.023-0.004,0.029-0.007,0.029-0.01c0-0.003-0.005-0.005-0.016-0.005h-0.456c-0.01,0-0.016-0.007-0.016-0.015V14.38
		c0-0.009,0.006-0.016,0.014-0.016h1.063c0.01,0,0.016,0.006,0.016,0.016v0.406c0,0.009-0.007,0.014-0.016,0.016l-0.287,0.035
		c-0.011,0-0.016,0.003-0.016,0.005c0,0.003,0.004,0.006,0.014,0.008l0.29,0.043c0.009,0.002,0.015,0.008,0.015,0.015v0.391
		c0,0.006-0.007,0.011-0.015,0.011h-1.064c-0.006,0-0.013-0.006-0.013-0.011V15.051z"/>
</g>
<g>
	<path fill="#ED1C24" d="M152.162,15.299c0,0.005-0.008,0.011-0.013,0.011h-1.065c-0.008,0-0.015-0.005-0.015-0.011v-0.391
		c0-0.007,0.006-0.013,0.015-0.015l0.29-0.043c0.01-0.001,0.015-0.004,0.015-0.008c0-0.002-0.007-0.005-0.016-0.005l-0.288-0.035
		c-0.009-0.001-0.016-0.007-0.016-0.016V14.38c0-0.01,0.006-0.016,0.016-0.016h1.063c0.008,0,0.015,0.007,0.015,0.016v0.265
		c0,0.008-0.007,0.015-0.017,0.015h-0.455c-0.013,0-0.017,0.002-0.017,0.005c0,0.003,0.006,0.005,0.028,0.01l0.447,0.076
		c0.009,0.002,0.013,0.009,0.013,0.016v0.165c0,0.007-0.007,0.013-0.017,0.016l-0.417,0.067c-0.024,0.005-0.029,0.01-0.029,0.015
		s0.009,0.007,0.02,0.007h0.427c0.01,0,0.017,0.005,0.017,0.015V15.299z"/>
</g>
<g>
	<path fill="#ED1C24" d="M153.903,16.809c0.011,0,0.014,0.006,0.014,0.016v0.427c0,0.011,0.004,0.018,0.008,0.018
		c0.005,0,0.01-0.003,0.015-0.029l0.067-0.417c0.003-0.01,0.009-0.016,0.016-0.016h0.165c0.007,0,0.014,0.002,0.016,0.011
		l0.076,0.447c0.004,0.023,0.007,0.03,0.01,0.03s0.005-0.004,0.005-0.017v-0.456c0-0.01,0.007-0.016,0.015-0.016h0.265
		c0.009,0,0.016,0.006,0.016,0.014v1.062c0,0.011-0.006,0.017-0.016,0.017h-0.405c-0.009,0-0.014-0.008-0.016-0.017l-0.035-0.287
		c0-0.011-0.003-0.016-0.006-0.016s-0.006,0.004-0.007,0.014l-0.044,0.291c-0.001,0.009-0.009,0.015-0.016,0.015h-0.389
		c-0.009,0-0.013-0.008-0.013-0.015v-1.064c0-0.006,0.005-0.013,0.013-0.013H153.903z"/>
</g>
<g>
	<path fill="#ED1C24" d="M152.391,13.762c-0.004,0.003-0.013,0.002-0.017-0.001l-0.753-0.753c-0.007-0.005-0.008-0.013-0.002-0.018
		l0.275-0.276c0.006-0.005,0.013-0.005,0.021,0l0.236,0.174c0.008,0.006,0.013,0.006,0.016,0.004c0.002-0.001,0-0.008-0.008-0.015
		l-0.178-0.228c-0.006-0.007-0.007-0.016,0-0.022l0.285-0.287c0.008-0.007,0.017-0.007,0.023,0l0.75,0.75
		c0.007,0.006,0.006,0.016,0,0.022l-0.187,0.186c-0.006,0.006-0.015,0.008-0.022,0l-0.322-0.322
		c-0.009-0.009-0.013-0.011-0.014-0.009c-0.003,0.002,0,0.009,0.012,0.028l0.264,0.37c0.005,0.007,0.002,0.015-0.004,0.019
		l-0.115,0.117c-0.006,0.005-0.015,0.005-0.023,0l-0.342-0.247c-0.021-0.014-0.028-0.013-0.031-0.011
		c-0.003,0.003,0,0.011,0.009,0.019l0.302,0.302c0.007,0.008,0.009,0.015,0.001,0.022L152.391,13.762z"/>
</g>
<g>
	<path fill="#ED1C24" d="M155.885,15.803c0.003-0.004,0.012-0.003,0.018,0.001l0.752,0.752c0.006,0.006,0.007,0.014,0.002,0.019
		l-0.275,0.275c-0.005,0.006-0.014,0.006-0.021,0l-0.235-0.174c-0.009-0.006-0.014-0.007-0.016-0.004
		c-0.002,0.001,0,0.008,0.007,0.015l0.179,0.227c0.005,0.008,0.005,0.017,0,0.023l-0.286,0.287c-0.009,0.007-0.017,0.007-0.023,0
		l-0.751-0.751c-0.007-0.005-0.006-0.015,0.001-0.021l0.187-0.187c0.007-0.006,0.016-0.007,0.022,0l0.323,0.323
		c0.009,0.008,0.012,0.011,0.014,0.008c0.002-0.001,0-0.008-0.014-0.027l-0.262-0.37c-0.005-0.008-0.003-0.015,0.003-0.02
		l0.116-0.116c0.006-0.005,0.014-0.005,0.022,0l0.343,0.246c0.021,0.015,0.027,0.014,0.03,0.011c0.003-0.003,0-0.011-0.008-0.019
		L155.711,16c-0.008-0.007-0.009-0.015-0.002-0.022L155.885,15.803z"/>
</g>
<g>
	<path fill="#ED1C24" d="M152.566,16.103c0.008,0.008,0.006,0.015-0.001,0.022l-0.302,0.302c-0.009,0.009-0.012,0.016-0.009,0.019
		c0.003,0.003,0.011,0.004,0.031-0.01l0.342-0.248c0.009-0.005,0.018-0.005,0.023,0l0.115,0.117
		c0.006,0.004,0.009,0.012,0.004,0.019l-0.264,0.37c-0.012,0.019-0.015,0.026-0.012,0.028c0.001,0.003,0.005,0,0.014-0.009
		l0.322-0.322c0.008-0.007,0.017-0.007,0.022,0l0.187,0.187c0.006,0.006,0.007,0.015,0,0.021l-0.75,0.751
		c-0.007,0.007-0.016,0.007-0.023,0l-0.285-0.287c-0.007-0.006-0.006-0.016,0-0.022l0.178-0.228c0.008-0.007,0.01-0.013,0.008-0.015
		c-0.003-0.002-0.008,0-0.016,0.005l-0.236,0.175c-0.008,0.004-0.015,0.004-0.021,0l-0.275-0.276
		c-0.006-0.005-0.005-0.014,0.002-0.019l0.753-0.754c0.004-0.003,0.013-0.004,0.017-0.001L152.566,16.103z"/>
</g>
<circle fill="#FFFFFF" cx="154.116" cy="14.837" r="1.306"/>
<circle fill="#ED1C24" cx="171.499" cy="11.209" r="1.606"/>
<g>
	<path fill="#ED1C24" d="M171.671,9.635c-0.009,0-0.012-0.005-0.012-0.013V9.278c0-0.008-0.003-0.015-0.006-0.015
		c-0.004,0-0.008,0.003-0.013,0.023l-0.053,0.335c-0.003,0.008-0.008,0.013-0.014,0.013h-0.132c-0.007,0-0.012-0.002-0.013-0.009
		l-0.061-0.36c-0.005-0.019-0.006-0.023-0.009-0.023c-0.002,0-0.004,0.002-0.004,0.012v0.367c0,0.008-0.006,0.013-0.012,0.013
		h-0.213c-0.007,0-0.013-0.005-0.013-0.012V8.77c0-0.01,0.005-0.014,0.013-0.014h0.326c0.008,0,0.011,0.006,0.013,0.014L171.499,9
		c0,0.008,0.002,0.012,0.005,0.012c0.002,0,0.004-0.003,0.006-0.011l0.034-0.233c0.002-0.008,0.006-0.012,0.012-0.012h0.314
		c0.006,0,0.009,0.006,0.009,0.012v0.857c0,0.004-0.004,0.01-0.009,0.01H171.671z"/>
</g>
<g>
	<path fill="#ED1C24" d="M172.732,10.202c-0.006-0.006-0.005-0.011,0.001-0.018l0.243-0.243c0.006-0.006,0.01-0.012,0.006-0.015
		c-0.002-0.001-0.009-0.002-0.024,0.009l-0.275,0.199c-0.007,0.003-0.014,0.003-0.018,0l-0.095-0.094
		c-0.004-0.003-0.005-0.01-0.002-0.016l0.212-0.297c0.009-0.016,0.012-0.021,0.009-0.023c0-0.002-0.003,0-0.01,0.007l-0.26,0.26
		c-0.005,0.005-0.014,0.004-0.019,0l-0.15-0.15c-0.005-0.005-0.005-0.013,0-0.018l0.604-0.605c0.006-0.005,0.013-0.005,0.018,0
		l0.231,0.23c0.006,0.005,0.004,0.012,0,0.019l-0.144,0.183c-0.005,0.005-0.007,0.011-0.005,0.012
		c0.001,0.002,0.005,0.001,0.012-0.004l0.189-0.139c0.005-0.004,0.013-0.004,0.017,0l0.222,0.222
		c0.004,0.004,0.004,0.011-0.001,0.015l-0.605,0.605c-0.004,0.003-0.011,0.004-0.014,0.001L172.732,10.202z"/>
</g>
<g>
	<path fill="#ED1C24" d="M173.106,11.38c0-0.008,0.004-0.012,0.013-0.012h0.344c0.009,0,0.014-0.002,0.014-0.006
		s-0.002-0.008-0.022-0.011l-0.335-0.055c-0.009-0.001-0.013-0.007-0.013-0.012v-0.132c0-0.006,0.002-0.012,0.009-0.013l0.36-0.061
		c0.018-0.004,0.022-0.006,0.022-0.009s-0.004-0.003-0.013-0.003h-0.366c-0.009,0-0.013-0.005-0.013-0.013v-0.211
		c0-0.008,0.004-0.013,0.011-0.013h0.855c0.008,0,0.012,0.004,0.012,0.013v0.325c0,0.007-0.006,0.013-0.012,0.013l-0.231,0.028
		c-0.008,0-0.014,0.002-0.014,0.004c0,0.002,0.004,0.005,0.013,0.006l0.233,0.035c0.007,0.001,0.011,0.006,0.011,0.012v0.314
		c0,0.005-0.006,0.009-0.011,0.009h-0.857c-0.004,0-0.01-0.004-0.01-0.009V11.38z"/>
</g>
<g>
	<path fill="#ED1C24" d="M169.927,11.58c0,0.004-0.006,0.009-0.011,0.009h-0.856c-0.005,0-0.013-0.003-0.013-0.009v-0.314
		c0-0.005,0.006-0.011,0.013-0.012l0.233-0.035c0.009,0,0.011-0.003,0.011-0.006c0-0.002-0.004-0.004-0.013-0.004l-0.229-0.028
		c-0.007,0-0.015-0.006-0.015-0.013v-0.325c0-0.009,0.006-0.013,0.015-0.013h0.854c0.007,0,0.012,0.005,0.012,0.013v0.211
		c0,0.008-0.005,0.013-0.013,0.013h-0.367c-0.01,0-0.012,0.001-0.012,0.003s0.004,0.004,0.022,0.009l0.359,0.061
		c0.007,0.001,0.01,0.007,0.01,0.013v0.132c0,0.005-0.005,0.011-0.013,0.012l-0.335,0.055c-0.021,0.003-0.023,0.008-0.023,0.011
		s0.006,0.006,0.015,0.006h0.344c0.008,0,0.013,0.004,0.013,0.012V11.58z"/>
</g>
<g>
	<path fill="#ED1C24" d="M171.327,12.794c0.009,0,0.012,0.005,0.012,0.013v0.343c0,0.01,0.002,0.016,0.007,0.016
		c0.003,0,0.008-0.004,0.011-0.024l0.055-0.335c0.002-0.008,0.007-0.013,0.013-0.013h0.132c0.006,0,0.012,0.003,0.014,0.01
		l0.061,0.36c0.004,0.018,0.006,0.023,0.009,0.023c0.002,0,0.002-0.003,0.002-0.013v-0.367c0-0.008,0.007-0.013,0.015-0.013h0.212
		c0.007,0,0.012,0.005,0.012,0.012v0.854c0,0.008-0.004,0.013-0.012,0.013h-0.326c-0.007,0-0.013-0.005-0.013-0.013l-0.028-0.23
		c0-0.009-0.003-0.013-0.005-0.013s-0.005,0.003-0.006,0.012l-0.034,0.233c-0.002,0.007-0.007,0.012-0.013,0.012h-0.313
		c-0.007,0-0.01-0.005-0.01-0.012v-0.855c0-0.005,0.005-0.012,0.01-0.012H171.327z"/>
</g>
<g>
	<path fill="#ED1C24" d="M170.11,10.343c-0.002,0.003-0.009,0.002-0.014-0.001l-0.605-0.605c-0.004-0.004-0.006-0.011-0.001-0.015
		l0.222-0.222c0.004-0.004,0.011-0.004,0.016,0l0.191,0.139c0.005,0.005,0.011,0.006,0.012,0.004c0.002-0.001,0-0.007-0.007-0.012
		l-0.143-0.183c-0.005-0.006-0.005-0.013,0-0.019l0.23-0.23c0.005-0.005,0.013-0.005,0.019,0l0.604,0.605
		c0.005,0.004,0.003,0.012-0.001,0.018l-0.15,0.15c-0.005,0.004-0.012,0.005-0.02,0l-0.259-0.26
		c-0.006-0.007-0.009-0.009-0.011-0.007s0,0.007,0.011,0.023l0.211,0.297c0.004,0.006,0.003,0.013-0.003,0.016l-0.093,0.094
		c-0.005,0.003-0.011,0.003-0.02,0l-0.274-0.199c-0.017-0.011-0.022-0.01-0.025-0.009c-0.002,0.003,0,0.009,0.007,0.015l0.242,0.243
		c0.007,0.006,0.007,0.012,0.002,0.018L170.11,10.343z"/>
</g>
<g>
	<path fill="#ED1C24" d="M172.921,11.985c0.004-0.003,0.012-0.002,0.014,0.001l0.606,0.605c0.004,0.004,0.006,0.011,0.003,0.015
		l-0.223,0.222c-0.004,0.004-0.011,0.004-0.018,0l-0.189-0.139c-0.006-0.005-0.011-0.006-0.013-0.004
		c-0.001,0.001,0,0.007,0.007,0.012l0.143,0.183c0.005,0.006,0.005,0.013,0,0.019l-0.23,0.23c-0.006,0.005-0.012,0.005-0.018,0
		l-0.604-0.604c-0.005-0.005-0.004-0.012,0.002-0.018l0.148-0.15c0.006-0.005,0.013-0.006,0.019,0l0.26,0.26
		c0.006,0.006,0.01,0.008,0.012,0.006s0-0.006-0.011-0.023l-0.211-0.297c-0.005-0.005-0.001-0.012,0.002-0.016l0.093-0.094
		c0.005-0.003,0.012-0.003,0.02,0.001l0.274,0.199c0.017,0.011,0.022,0.01,0.025,0.008c0.002-0.003,0-0.008-0.007-0.016
		l-0.243-0.242c-0.006-0.006-0.006-0.012-0.001-0.018L172.921,11.985z"/>
</g>
<g>
	<path fill="#ED1C24" d="M170.252,12.227c0.005,0.006,0.005,0.012-0.002,0.018l-0.242,0.243c-0.007,0.006-0.009,0.011-0.007,0.015
		c0.003,0.003,0.009,0.003,0.025-0.009l0.274-0.199c0.009-0.003,0.015-0.003,0.02,0l0.093,0.094c0.006,0.004,0.007,0.01,0.003,0.016
		l-0.211,0.298c-0.011,0.015-0.013,0.02-0.011,0.022c0.002,0.001,0.005,0,0.011-0.007l0.259-0.259c0.008-0.006,0.015-0.005,0.02,0
		l0.15,0.15c0.004,0.004,0.006,0.012,0.001,0.017l-0.604,0.604c-0.006,0.006-0.014,0.006-0.019,0l-0.23-0.23
		c-0.005-0.005-0.005-0.012,0-0.018l0.143-0.184c0.007-0.006,0.009-0.01,0.007-0.012c-0.001-0.001-0.007-0.001-0.012,0.004
		l-0.191,0.14c-0.005,0.004-0.012,0.004-0.016,0l-0.222-0.222c-0.005-0.004-0.003-0.01,0.001-0.015l0.605-0.606
		c0.005-0.002,0.012-0.003,0.014-0.001L170.252,12.227z"/>
</g>
<circle fill="#FFFFFF" stroke="#FFFFFF" stroke-miterlimit="10" cx="171.499" cy="11.209" r="1.05"/>
<path fill="#ED1C24" stroke="#ED1C24" stroke-miterlimit="10" d="M154.025,6.634c0,0,1.172-1.142,2.635-1.533"/>
<g>
	<g>
		<path fill="#FFFFFF" d="M149.363,26.323c0.354,0.281,0.594,0.668,0.924,0.974c0.277,0.258,0.594,0.478,0.926,0.66
			c0.073,0.039,0.146,0.08,0.217,0.123c0.036,0.023,0.071,0.047,0.106,0.07c-0.217-0.113-0.388-0.275-0.512-0.486
			c0.764,1.125,2.185,1.621,3.42,0.897c1.116-0.654,1.663-2.292,0.896-3.42c-0.459-0.677-1-1.169-1.713-1.56
			c-0.216-0.133-0.15-0.072,0.194,0.182c-0.12-0.094-0.22-0.218-0.319-0.333c-0.195-0.226-0.368-0.454-0.604-0.641
			c-0.545-0.431-1.044-0.732-1.768-0.732c-0.66,0-1.301,0.266-1.768,0.732C148.483,23.667,148.293,25.476,149.363,26.323
			L149.363,26.323z"/>
	</g>
</g>
<g>
	<g>
		<path fill="#FFFFFF" d="M153.529,24.863c0-0.171,0-0.342,0-0.513c0-1.363-1.138-2.5-2.5-2.5s-2.5,1.137-2.5,2.5
			c0,0.171,0,0.342,0,0.513c0,1.363,1.138,2.5,2.5,2.5S153.529,26.226,153.529,24.863L153.529,24.863z"/>
	</g>
</g>
<g>
	<g>
		<path fill="#FFFFFF" d="M150.594,27.092c0.426,0.378,0.829,0.778,1.231,1.18c0.963,0.963,2.572,0.963,3.535,0
			c0.964-0.963,0.963-2.572,0-3.535c-0.402-0.402-0.806-0.803-1.231-1.18c-1.019-0.904-2.529-1.006-3.535,0
			C149.673,24.477,149.574,26.188,150.594,27.092L150.594,27.092z"/>
	</g>
</g>
<g>
	<g>
		<path fill="#FFFFFF" d="M157.813,5.044c-0.024-0.016-0.05-0.032-0.074-0.047c0.299,0.299,0.598,0.598,0.896,0.897
			c0.165,0.474,0.214,0.59,0.147,0.347c-0.068-0.265-0.199-0.509-0.309-0.759c-0.263-0.604-1.026-1.067-1.617-1.22
			c-1.319-0.34-2.71,0.417-3.076,1.746c-0.356,1.297,0.428,2.735,1.746,3.075c0.025,0.006,0.05,0.013,0.075,0.02
			c-0.368-0.214-0.735-0.429-1.104-0.643c-0.462-0.956-0.633-1.221-0.514-0.798c0.085,0.232,0.18,0.459,0.284,0.684
			c0.306,0.447,0.562,0.723,1.021,1.016c1.149,0.734,2.753,0.243,3.42-0.897C159.419,7.253,158.959,5.776,157.813,5.044
			L157.813,5.044z"/>
	</g>
</g>
</svg>
